<?xml version="1.0"?>
<svg xmlns="http://www.w3.org/2000/svg" xmlns:xlink="http://www.w3.org/1999/xlink" xmlns:svgjs="http://svgjs.com/svgjs" version="1.1" width="512" height="512" x="0" y="0" viewBox="0 0 512 512" style="enable-background:new 0 0 512 512" xml:space="preserve" class=""><g><g xmlns="http://www.w3.org/2000/svg"><path d="m494 504h-476c-5.523 0-10-4.477-10-10v-44c0-5.523 4.477-10 10-10h476c5.523 0 10 4.477 10 10v44c0 5.523-4.477 10-10 10z" fill="#400082" data-original="#595965" style="" class=""/><path d="m494 136h-476c-5.523 0-10-4.477-10-10v-44c0-5.523 4.477-10 10-10h476c5.523 0 10 4.477 10 10v44c0 5.523-4.477 10-10 10z" fill="#400082" data-original="#595965" style="" class=""/><path d="m504 450v44c0 5.52-4.48 10-10 10h-48c5.52 0 10-4.48 10-10v-44c0-5.52-4.48-10-10-10h48c5.52 0 10 4.48 10 10z" fill="#400082" data-original="#44454e" style="" class=""/><path d="m504 82v44c0 5.52-4.48 10-10 10h-48c5.52 0 10-4.48 10-10v-44c0-5.52-4.48-10-10-10h48c5.52 0 10 4.48 10 10z" fill="#400082" data-original="#44454e" style="" class=""/><path d="m24 136h464v304h-464z" fill="#ffffff" data-original="#79cb9c" style="" class=""/><path d="m440 136h48v304h-48z" fill="#ffffff" data-original="#63ac7d" style="" class=""/><path d="m144 104h224v368h-224z" fill="#edebfd" transform="matrix(0 1 -1 0 544 32)" data-original="#edebfd" style="" class=""/><path d="m400 176h40v224h-40z" fill="#d2d2fc" data-original="#d2d2fc" style="" class=""/><path d="m144 72h-96v-44c0-11.046 8.954-20 20-20h56c11.046 0 20 8.954 20 20z" fill="#edebfd" data-original="#edebfd" style="" class=""/><path d="m368 72h96v-44c0-11.046-8.954-20-20-20h-56c-11.046 0-20 8.954-20 20z" fill="#edebfd" data-original="#edebfd" style="" class=""/><path d="m144 28v44h-40v-44c0-11.05-8.95-20-20-20h40c11.05 0 20 8.95 20 20z" fill="#d2d2fc" data-original="#d2d2fc" style="" class=""/><path d="m464 28v44h-40v-44c0-11.05-8.95-20-20-20h40c11.05 0 20 8.95 20 20z" fill="#d2d2fc" data-original="#d2d2fc" style="" class=""/><path d="m252 360 48-88h-40v-56l-48 88h40z" fill="#f1cc76" data-original="#f1cc76" style="" class=""/><path d="m512 126v-44c0-9.925-8.075-18-18-18h-22v-36c0-15.439-12.561-28-28-28h-56c-15.439 0-28 12.561-28 28v36h-208v-36c0-15.439-12.561-28-28-28h-56c-15.439 0-28 12.561-28 28v36h-22c-9.925 0-18 8.075-18 18v44c0 9.248 7.013 16.883 16 17.882v288.236c-8.987.999-16 8.634-16 17.882v44c0 9.925 8.075 18 18 18h476c9.925 0 18-8.075 18-18v-44c0-9.248-7.013-16.883-16-17.882v-288.236c8.987-.999 16-8.634 16-17.882zm-32 306h-448v-288h448zm-104-404c0-6.617 5.383-12 12-12h56c6.617 0 12 5.383 12 12v36h-80zm-320 0c0-6.617 5.383-12 12-12h56c6.617 0 12 5.383 12 12v36h-80zm-40 54c0-1.103.897-2 2-2h476c1.103 0 2 .897 2 2v44c0 1.103-.897 2-2 2-22.67 0-452.876 0-476 0-1.103 0-2-.897-2-2zm480 412c0 1.103-.897 2-2 2h-476c-1.103 0-2-.897-2-2v-44c0-1.103.897-2 2-2h476c1.103 0 2 .897 2 2z" fill="#000000" data-original="#000000" style="" class=""/><path d="m72 408h368c4.418 0 8-3.582 8-8v-224c0-4.418-3.582-8-8-8h-368c-4.418 0-8 3.582-8 8v224c0 4.418 3.582 8 8 8zm8-224h352v208h-352z" fill="#000000" data-original="#000000" style="" class=""/><path d="m152 224h-16v-16c0-4.418-3.582-8-8-8s-8 3.582-8 8v16h-16c-4.418 0-8 3.582-8 8s3.582 8 8 8h16v16c0 4.418 3.582 8 8 8s8-3.582 8-8v-16h16c4.418 0 8-3.582 8-8s-3.582-8-8-8z" fill="#000000" data-original="#000000" style="" class=""/><path d="m408 224h-48c-4.418 0-8 3.582-8 8s3.582 8 8 8h48c4.418 0 8-3.582 8-8s-3.582-8-8-8z" fill="#000000" data-original="#000000" style="" class=""/><path d="m300 264h-32v-48c0-8.262-11.068-11.079-15.023-3.831l-48 88c-2.902 5.32.952 11.831 7.023 11.831h32v48c0 8.264 11.07 11.077 15.023 3.831l48-88c2.902-5.32-.952-11.831-7.023-11.831zm-40 64.627v-24.627c0-4.418-3.582-8-8-8h-26.523l26.523-48.627v24.627c0 4.418 3.582 8 8 8h26.523z" fill="#000000" data-original="#000000" style="" class=""/></g></g></svg>
