<?xml version="1.0"?>
<svg xmlns="http://www.w3.org/2000/svg" xmlns:xlink="http://www.w3.org/1999/xlink" xmlns:svgjs="http://svgjs.com/svgjs" version="1.1" width="512" height="512" x="0" y="0" viewBox="0 0 496 496" style="enable-background:new 0 0 512 512" xml:space="preserve" class=""><g transform="matrix(1,0,0,1,0,100)"><path xmlns="http://www.w3.org/2000/svg" d="m368 80h96v-48h-96zm16-32h64v16h-64zm0 0" fill="#ffffff" data-original="#000000" style=""/><path xmlns="http://www.w3.org/2000/svg" d="m131.039062 61.328125c-48.214843 27.558594-82.679687 74.566406-94.542968 128.96875l15.632812 3.40625c10.902344-49.984375 42.550782-93.167969 86.847656-118.488281l32.992188-18.847656-7.9375-13.886719zm0 0" fill="#ffffff" data-original="#000000" style=""/><path xmlns="http://www.w3.org/2000/svg" d="m472 0h-190.113281c-12.933594 0-25.886719 3.054688-37.460938 8.839844-9.371093 4.6875-19.851562 7.160156-30.3125 7.160156h-14.113281c-4.40625 0-8-3.59375-8-8v-8h-18.128906l-58.703125 33.550781c-71.039063 40.59375-115.167969 116.625-115.167969 198.449219v8h20l24 32h164v-8c0-52.9375 43.0625-96 96-96s96 43.0625 96 96v8h72c13.230469 0 24-10.769531 24-24v-224c0-13.230469-10.769531-24-24-24zm-432 240h20l12 16h-20zm60 0 12 16h-20l-12-16zm32 16-12-16h20l12 16zm172-104c-59.0625 0-107.601562 45.960938-111.71875 104h-15.875c4.160156-66.847656 59.722656-120 127.59375-120s123.433594 53.152344 127.59375 120h-15.875c-4.117188-58.039062-52.65625-104-111.71875-104zm176 96c0 4.414062-3.59375 8-8 8h-24.40625c-4.1875-75.671875-66.890625-136-143.59375-136-72.039062 0-131.71875 53.238281-142.199219 122.398438l-13.800781-18.398438h-131.847656c2.769531-73.015625 43.207031-140.136719 106.953125-176.558594l54.390625-31.089844c3.40625 9.128907 12.207031 15.648438 22.503906 15.648438h14.113281c12.933594 0 25.886719-3.054688 37.460938-8.839844 9.363281-4.679687 19.839843-7.160156 30.3125-7.160156h190.113281c4.40625 0 8 3.59375 8 8zm0 0" fill="#ffffff" data-original="#000000" style=""/></g></svg>
