<?xml version="1.0"?>
<svg xmlns="http://www.w3.org/2000/svg" xmlns:xlink="http://www.w3.org/1999/xlink" xmlns:svgjs="http://svgjs.com/svgjs" version="1.1" width="512" height="512" x="0" y="0" viewBox="0 0 24 24" style="enable-background:new 0 0 512 512" xml:space="preserve" class=""><g><g xmlns="http://www.w3.org/2000/svg"><g><g><path d="m14.361 24c-.027 0-.056-.001-.083-.003-.309-.024-.591-.182-.774-.432l-1.208-1.657c-.024-.033-.056-.064-.091-.09l-1.772-1.305c-.25-.185-.406-.468-.43-.777-.023-.309.089-.612.309-.831.324-.326.806-.416 1.228-.231l1.3.568 2.7-2.91.234-.594-.234.442-4.724-2.5c-.317-.191-.51-.488-.551-.828-.042-.34.073-.675.316-.918.238-.239.581-.337.91-.267l6.87 1.455c.04.009.079-.002.105-.031l2.464-2.618c.275-.292.735-.463 1.264-.471.575-.031 1.051.163 1.347.458.295.295.467.798.459 1.347-.008.529-.18.99-.472 1.265l-2.624 2.474c-.03.028-.042.067-.033.104l1.58 6.952c.079.333-.02.68-.263.925-.241.242-.569.361-.914.317-.339-.04-.636-.229-.814-.52l-2.63-4.863-.492-.365.341.366-2.904 2.699.568 1.302c.184.422.093.903-.231 1.227-.201.199-.47.31-.751.31zm3.389-6.567c.05 0 .101.003.151.01.33.045.619.233.794.517l2.63 4.863.509.349-.354-.353-1.582-6.943c-.092-.382.032-.791.323-1.062l2.622-2.471c.072-.069.153-.271.157-.552.004-.297-.08-.539-.166-.625-.087-.086-.332-.179-.625-.166-.28.004-.481.084-.55.157l-2.463 2.616c-.265.284-.667.407-1.046.324l-6.87-1.455-.23.593.234-.442 4.724 2.5c.311.187.501.476.549.807.047.332-.057.663-.284.909l-2.942 3.17c-.145.156-.371.204-.566.118l-1.626-.71c-.039-.017-.088-.009-.119.022l1.781 1.401c.116.086.218.188.303.304l1.21 1.659c.123-.024.132-.073.113-.114l-.709-1.626c-.085-.195-.038-.422.117-.566l3.163-2.94c.207-.19.475-.294.752-.294zm5.436-4.726h.01z" fill="#fe346e" data-original="#000000" style="" class=""/></g></g></g><g xmlns="http://www.w3.org/2000/svg"><g><g><path d="m10.006 10.5c-.183 0-.359-.101-.447-.276-.123-.247-.024-.548.223-.671l9.494-4.75c.154-.078.34-.07.486.022.148.091.238.252.238.425v4.25c0 .276-.224.5-.5.5s-.5-.224-.5-.5v-3.441l-8.771 4.388c-.071.036-.148.053-.223.053z" fill="#fe346e" data-original="#000000" style="" class=""/></g></g></g><g xmlns="http://www.w3.org/2000/svg"><g><g><path d="m8.595 19.5c-.083 0-.166-.02-.243-.063l-8.095-4.5c-.158-.088-.257-.255-.257-.437v-9.25c0-.173.09-.334.237-.425s.331-.099.486-.022l9.494 4.75c.247.124.347.424.224.671-.124.248-.425.347-.671.224l-8.77-4.389v8.147l7.838 4.357c.241.134.328.438.194.68-.092.164-.262.257-.437.257z" fill="#fe346e" data-original="#000000" style="" class=""/></g></g></g><g xmlns="http://www.w3.org/2000/svg"><g><g><path d="m19.5 5.75c-.075 0-.151-.017-.224-.053l-9.282-4.638-9.27 4.638c-.245.122-.547.024-.671-.223-.123-.247-.024-.548.223-.671l9.494-4.75c.141-.07.307-.07.447 0l9.506 4.75c.247.124.347.424.224.671-.088.175-.264.276-.447.276z" fill="#fe346e" data-original="#000000" style="" class=""/></g></g></g><g xmlns="http://www.w3.org/2000/svg"><g><g><path d="m5.043 11.739c-.276 0-.5-.224-.5-.5v-3.718c0-.189.107-.362.276-.447l9.494-4.75c.244-.122.547-.023.671.224.123.247.023.547-.224.671l-9.217 4.612v3.409c0 .276-.224.499-.5.499z" fill="#fe346e" data-original="#000000" style="" class=""/></g></g></g></g></svg>
