<?xml version="1.0"?>
<svg xmlns="http://www.w3.org/2000/svg" xmlns:xlink="http://www.w3.org/1999/xlink" xmlns:svgjs="http://svgjs.com/svgjs" version="1.1" width="512" height="512" x="0" y="0" viewBox="0 0 64 64" style="enable-background:new 0 0 512 512" xml:space="preserve" class=""><g><path xmlns="http://www.w3.org/2000/svg" d="m29 7v-5h6v5" fill="#400082" data-original="#807f80" style="" class=""/><path xmlns="http://www.w3.org/2000/svg" d="m29 2h3v5h-3z" fill="#400082" data-original="#aaa9aa" style="" class=""/><path xmlns="http://www.w3.org/2000/svg" d="m27 16v-9h10v9" fill="#400082" data-original="#aaa9aa" style="" class=""/><path xmlns="http://www.w3.org/2000/svg" d="m27 7h7v9h-7z" fill="#400082" data-original="#e3e1e3" style="" class=""/><path xmlns="http://www.w3.org/2000/svg" d="m37 62h-10c-1.105 0-2-.895-2-2v-14h14v14c0 1.105-.895 2-2 2z" fill="#400082" data-original="#807f80" style="" class=""/><path xmlns="http://www.w3.org/2000/svg" d="m36 60v-14h-11v14c0 1.105.895 2 2 2h7c1.105 0 2-.895 2-2z" fill="#400082" data-original="#aaa9aa" style="" class=""/><path xmlns="http://www.w3.org/2000/svg" d="m25 28v-12h14v12" fill="#400082" data-original="#807f80" style="" class=""/><path xmlns="http://www.w3.org/2000/svg" d="m25 16h11v12h-11z" fill="#400082" data-original="#aaa9aa" style="" class=""/><path xmlns="http://www.w3.org/2000/svg" d="m25 34h14v6h-14z" fill="#400082" data-original="#807f80" style="" class=""/><path xmlns="http://www.w3.org/2000/svg" d="m25 34h11v6h-11z" fill="#400082" data-original="#aaa9aa" style="" class=""/><path xmlns="http://www.w3.org/2000/svg" d="m21 28h22v6h-22z" fill="#400082" data-original="#aaa9aa" style="" class=""/><path xmlns="http://www.w3.org/2000/svg" d="m21 28h19v6h-19z" fill="#400082" data-original="#e3e1e3" style="" class=""/><path xmlns="http://www.w3.org/2000/svg" d="m21 40h22v6h-22z" fill="#400082" data-original="#aaa9aa" style="" class=""/><path xmlns="http://www.w3.org/2000/svg" d="m21 40h19v6h-19z" fill="#400082" data-original="#e3e1e3" style="" class=""/><path xmlns="http://www.w3.org/2000/svg" d="m37 63h-10c-1.654 0-3-1.346-3-3v-14h2v14c0 .552.449 1 1 1h10c.551 0 1-.448 1-1v-14h2v14c0 1.654-1.346 3-3 3z" fill="#ffffff" data-original="#000000" style="" class=""/><path xmlns="http://www.w3.org/2000/svg" d="m43 47h-22c-.552 0-1-.447-1-1v-6c0-.553.448-1 1-1h22c.552 0 1 .447 1 1v6c0 .553-.448 1-1 1zm-21-2h20v-4h-20z" fill="#ffffff" data-original="#000000" style="" class=""/><path xmlns="http://www.w3.org/2000/svg" d="m43 35h-22c-.552 0-1-.447-1-1v-6c0-.552.448-1 1-1h22c.552 0 1 .448 1 1v6c0 .553-.448 1-1 1zm-21-2h20v-4h-20z" fill="#ffffff" data-original="#000000" style="" class=""/><path xmlns="http://www.w3.org/2000/svg" d="m24 34h2v6h-2z" fill="#ffffff" data-original="#000000" style="" class=""/><path xmlns="http://www.w3.org/2000/svg" d="m38 34h2v6h-2z" fill="#ffffff" data-original="#000000" style="" class=""/><path xmlns="http://www.w3.org/2000/svg" d="m40 28h-2v-11h-12v11h-2v-12c0-.552.448-1 1-1h14c.552 0 1 .448 1 1z" fill="#ffffff" data-original="#000000" style="" class=""/><path xmlns="http://www.w3.org/2000/svg" d="m38 16h-2v-8h-8v8h-2v-9c0-.552.448-1 1-1h10c.552 0 1 .448 1 1z" fill="#ffffff" data-original="#000000" style="" class=""/><path xmlns="http://www.w3.org/2000/svg" d="m36 7h-2v-4h-4v4h-2v-5c0-.552.448-1 1-1h6c.552 0 1 .448 1 1z" fill="#ffffff" data-original="#000000" style="" class=""/><path xmlns="http://www.w3.org/2000/svg" d="m25 49h14v2h-14z" fill="#ffffff" data-original="#000000" style="" class=""/><path xmlns="http://www.w3.org/2000/svg" d="m25 53h14v2h-14z" fill="#ffffff" data-original="#000000" style="" class=""/><path xmlns="http://www.w3.org/2000/svg" d="m25 57h14v2h-14z" fill="#ffffff" data-original="#000000" style="" class=""/><path xmlns="http://www.w3.org/2000/svg" d="m13 45h-10c-.404 0-.769-.243-.924-.617s-.069-.804.217-1.09l6.293-6.293-7.293-7.293c-.286-.286-.372-.716-.217-1.09.155-.373.52-.617.924-.617h7v-8c0-.404.244-.769.617-.924.374-.156.803-.07 1.09.217l6 6-1.414 1.414-4.293-4.293v6.586c0 .552-.448 1-1 1h-5.586l6.293 6.293c.391.391.391 1.023 0 1.414l-5.293 5.293h7.586z" fill="#ffffff" data-original="#000000" style="" class=""/><path xmlns="http://www.w3.org/2000/svg" d="m61 45h-10v-2h7.586l-5.293-5.293c-.391-.391-.391-1.023 0-1.414l6.293-6.293h-5.586c-.552 0-1-.448-1-1v-6.586l-4.293 4.293-1.414-1.414 6-6c.286-.287.714-.373 1.09-.217.373.155.617.52.617.924v8h7c.404 0 .769.244.924.617.155.374.069.804-.217 1.09l-7.293 7.293 6.293 6.293c.286.286.372.716.217 1.09s-.52.617-.924.617z" fill="#ffffff" data-original="#000000" style="" class=""/></g></svg>
