<?xml version="1.0"?>
<svg xmlns="http://www.w3.org/2000/svg" xmlns:xlink="http://www.w3.org/1999/xlink" xmlns:svgjs="http://svgjs.com/svgjs" version="1.1" width="512" height="512" x="0" y="0" viewBox="0 0 64 64" style="enable-background:new 0 0 512 512" xml:space="preserve"><g><g xmlns="http://www.w3.org/2000/svg"><path d="m48.722 57h3.278v-2h-3.278c-.347-.595-.985-1-1.722-1s-1.375.405-1.722 1h-4.556c-.347-.595-.985-1-1.722-1s-1.375.405-1.722 1h-4.556c-.347-.595-.985-1-1.722-1s-1.375.405-1.722 1h-4.556c-.347-.595-.985-1-1.722-1s-1.375.405-1.722 1h-3.278v2h3.278c.347.595.985 1 1.722 1s1.375-.405 1.722-1h4.556c.347.595.985 1 1.722 1s1.375-.405 1.722-1h4.556c.347.595.985 1 1.722 1s1.375-.405 1.722-1h4.556c.347.595.985 1 1.722 1s1.375-.405 1.722-1z" fill="#ffd523" data-original="#000000" style=""/><path d="m4 40h2v4h-2z" fill="#ffd523" data-original="#000000" style=""/><path d="m7 40h2v4h-2z" fill="#ffd523" data-original="#000000" style=""/><path d="m62.707 32.293-2.707-2.707v-5.586c0-1.302-.839-2.402-2-2.816v-11.123l1.758-2.177c.762-.728 1.242-1.749 1.242-2.884 0-2.206-1.794-4-4-4-1.549 0-2.88.894-3.544 2.184l-.011-.016-44.748 29.832h-1.697c-1.654 0-3 1.346-3 3v1c-1.654 0-3 1.346-3 3v8c0 1.654 1.346 3 3 3h9.111c-1.301 1.272-2.111 3.042-2.111 5 0 3.86 3.141 7 7 7h34c3.859 0 7-3.14 7-7s-3.141-7-7-7h-11v-3-10c0-1.366-.315-2.657-.862-3.818l15.862-19.644v8.646c-1.161.414-2 1.514-2 2.816v5.586l-2.707 2.707c-.188.187-.293.442-.293.707v4c0 .265.105.52.293.707l3 3c.286.287.716.373 1.09.217.374-.155.617-.52.617-.924v-3c0-.551.448-1 1-1s1 .449 1 1v3c0 .404.243.769.617.924.124.051.254.076.383.076.26 0 .516-.102.707-.293l3-3c.188-.187.293-.442.293-.707v-4c0-.265-.105-.52-.293-.707zm-5.707-29.293c1.103 0 2 .897 2 2s-.897 2-2 2-2-.897-2-2 .897-2 2-2zm-18 33v3h-11c-.552 0-1-.449-1-1v-9h5c3.859 0 7 3.14 7 7zm-11 5h11v4h-16v-15c0-.551.448-1 1-1h1v9c0 1.654 1.346 3 3 3zm2.581-14h-6.581c-1.654 0-3 1.346-3 3v7h-7v-1c0-1.295-.83-2.391-1.982-2.81l36.311-24.208zm-24.581 9c0-.551.448-1 1-1h4c.552 0 1 .449 1 1v1h-6zm-2 3h1 8 8v2h-10v2h10v2h-17c-.352 0-.686.072-1 .184v-5.184c0-.551.448-1 1-1zm38 12v1h-2v-1zm13.433 7.019c.186-.316.33-.656.425-1.019h1.041c-.13.637-.384 1.229-.732 1.753zm.425-3.019c-.094-.363-.238-.704-.425-1.019l.734-.734c.348.524.602 1.116.732 1.753zm-1.858 1c0 1.103-.897 2-2 2h-5-8-8-8-5c-1.103 0-2-.897-2-2s.897-2 2-2h5 8 8 8 5c1.103 0 2 .897 2 2zm-32 4v1h-2v-1zm2 0h2v1h-2zm4 0h2v1h-2zm4 0h2v1h-2zm4 0h2v1h-2zm4 0h2v1h-2zm4 0h2v1h-2zm4 0h2v1h-2zm-34.167-6.753.734.734c-.186.316-.33.656-.425 1.019h-1.041c.13-.637.384-1.229.732-1.753zm.309 3.753c.094.363.238.704.425 1.019l-.734.734c-.348-.524-.602-1.116-.732-1.753zm33.858-5v-1h2v1zm-2 0h-2v-1h2zm-8 0h-2v-1h2zm-4 0h-2v-1h2zm-4 0h-2v-1h2zm-4 0h-2v-1h2zm-4 0h-2v-1h2zm-4 0c-.74 0-1.424.215-2.019.567l-.734-.734c.791-.524 1.736-.833 2.753-.833zm-2.753 8.167.734-.734c.595.352 1.279.567 2.019.567v1c-1.017 0-1.962-.309-2.753-.833zm36.753-.167c.74 0 1.424-.215 2.019-.567l.734.734c-.791.524-1.736.833-2.753.833zm2.753-8.167-.734.734c-.595-.352-1.279-.567-2.019-.567v-1c1.017 0 1.962.309 2.753.833zm-36.753-2.833h-14c-.552 0-1-.449-1-1s.448-1 1-1h18 17v2zm19.46-20.138 13.878-15.612c.186-.208.44-.328.719-.335.281-.007.54.096.736.292l.053.053-13.826 17.123c-.456-.569-.981-1.077-1.56-1.521zm16.64-17.156c-.571-.522-1.325-.812-2.102-.791-.822.024-1.608.391-2.154 1.005l-14.127 15.893c-.76-.346-1.575-.587-2.43-.71l20.104-20.408c.501 1.062 1.451 1.862 2.609 2.163v.496zm1.9 15.11c.314.112.648.184 1 .184s.686-.072 1-.184v2.184h-2zm1-3.816c.552 0 1 .449 1 1s-.448 1-1 1-1-.449-1-1 .448-1 1-1zm4 13.586-1 1v-.586c0-1.654-1.346-3-3-3s-3 1.346-3 3v.586l-1-1v-3.172l2.414-2.414h3.172l2.414 2.414z" fill="#ffd523" data-original="#000000" style=""/><path d="m26 42h4v2h-4z" fill="#ffd523" data-original="#000000" style=""/></g></g></svg>
