<?xml version="1.0"?>
<svg xmlns="http://www.w3.org/2000/svg" xmlns:xlink="http://www.w3.org/1999/xlink" xmlns:svgjs="http://svgjs.com/svgjs" version="1.1" width="512" height="512" x="0" y="0" viewBox="0 0 512 512" style="enable-background:new 0 0 512 512" xml:space="preserve"><g><path xmlns="http://www.w3.org/2000/svg" d="m504.5 110.817h-331.333c-4.142 0-7.5-3.358-7.5-7.5s3.358-7.5 7.5-7.5h331.333c4.142 0 7.5 3.358 7.5 7.5s-3.358 7.5-7.5 7.5z" fill="#000000" data-original="#000000" style=""/><path xmlns="http://www.w3.org/2000/svg" d="m504.5 140.817h-257.455c-4.142 0-7.5-3.358-7.5-7.5s3.358-7.5 7.5-7.5h257.455c4.142 0 7.5 3.358 7.5 7.5s-3.358 7.5-7.5 7.5z" fill="#000000" data-original="#000000" style=""/><path xmlns="http://www.w3.org/2000/svg" d="m504.5 80.817h-331.333c-4.142 0-7.5-3.358-7.5-7.5s3.358-7.5 7.5-7.5h331.333c4.142 0 7.5 3.358 7.5 7.5s-3.358 7.5-7.5 7.5z" fill="#000000" data-original="#000000" style=""/><path xmlns="http://www.w3.org/2000/svg" d="m165.667 68.304c0-22.788 18.539-41.328 41.327-41.328h263.679c22.788 0 41.327 18.54 41.327 41.328v70.027c0 22.788-18.539 41.328-41.327 41.328h-263.679c-22.788 0-41.327-18.54-41.327-41.328z" fill="#808b95" data-original="#808b95" style=""/><path xmlns="http://www.w3.org/2000/svg" d="m512 103.317c0 4.142-3.358 7.5-7.5 7.5h-331.333c-4.142 0-7.5-3.358-7.5-7.5s3.358-7.5 7.5-7.5h331.333c4.142 0 7.5 3.358 7.5 7.5zm-338.833-22.5h331.333c4.142 0 7.5-3.358 7.5-7.5s-3.358-7.5-7.5-7.5h-57.604l26.038-26.038c2.929-2.929 2.929-7.678 0-10.606-2.928-2.929-7.677-2.929-10.606 0l-36.645 36.644h-22.62l26.038-26.038c2.929-2.929 2.929-7.678 0-10.606-2.929-2.929-7.678-2.929-10.606 0l-36.644 36.644h-22.62l26.038-26.038c2.929-2.929 2.929-7.678 0-10.606-2.929-2.929-7.678-2.929-10.606 0l-36.644 36.644h-22.62l26.038-26.038c2.929-2.929 2.929-7.678 0-10.606-2.929-2.929-7.678-2.929-10.606 0l-36.644 36.644h-22.62l26.038-26.038c2.929-2.929 2.929-7.678 0-10.606-2.928-2.929-7.677-2.929-10.606 0l-36.645 36.644h-22.62l26.036-26.037c2.929-2.929 2.929-7.678 0-10.606-2.928-2.929-7.677-2.929-10.606 0l-36.645 36.644h-33.352c-4.142 0-7.5 3.358-7.5 7.5s3.357 7.499 7.5 7.499zm331.333 45h-331.333c-4.142 0-7.5 3.358-7.5 7.5s3.358 7.5 7.5 7.5h33.352l36.645 36.644c2.929 2.929 7.678 2.929 10.606 0 2.929-2.929 2.929-7.678 0-10.606l-26.038-26.038h22.62l36.645 36.644c2.929 2.929 7.678 2.929 10.606 0 2.929-2.929 2.929-7.678 0-10.606l-26.038-26.038h22.62l36.644 36.644c2.929 2.929 7.678 2.929 10.606 0 2.929-2.929 2.929-7.678 0-10.606l-26.038-26.038h22.62l36.644 36.644c2.929 2.929 7.678 2.929 10.606 0 2.929-2.929 2.929-7.678 0-10.606l-26.038-26.038h22.62l36.644 36.644c2.929 2.929 7.678 2.929 10.606 0 2.929-2.929 2.929-7.678 0-10.606l-26.038-26.038h22.62l36.645 36.644c2.929 2.929 7.678 2.929 10.606 0 2.929-2.929 2.929-7.678 0-10.606l-26.038-26.038h57.606c4.142 0 7.5-3.358 7.5-7.5s-3.358-7.5-7.5-7.5z" fill="#5e6b75" data-original="#5e6b75" style=""/><path xmlns="http://www.w3.org/2000/svg" d="m470.673 26.976h-4.613c3.769 6.23 5.94 13.53 5.94 21.328v70.027c0 22.788-18.539 41.328-41.327 41.328h-259.067c7.245 11.977 20.397 20 35.387 20h263.679c22.788 0 41.327-18.54 41.327-41.328v-70.027c.001-22.788-18.538-41.328-41.326-41.328z" fill="#5e6b75" data-original="#5e6b75" style=""/><g xmlns="http://www.w3.org/2000/svg" fill="#4d5961"><path d="m330.829 177.461c2.929 2.929 7.678 2.929 10.606 0 2.929-2.929 2.929-7.678 0-10.606l-7.196-7.196h-21.213z" fill="#4d5961" data-original="#4d5961" style=""/><path d="m374.662 177.461c2.929 2.929 7.678 2.929 10.606 0 2.929-2.929 2.929-7.678 0-10.606l-7.196-7.196h-21.213z" fill="#4d5961" data-original="#4d5961" style=""/><path d="m418.495 177.461c2.929 2.929 7.678 2.929 10.606 0 2.929-2.929 2.929-7.678 0-10.606l-7.196-7.196h-21.213z" fill="#4d5961" data-original="#4d5961" style=""/><path d="m472.934 29.173c-1.843-1.844-4.407-2.526-6.785-2.049 2.569 4.288 4.384 9.077 5.258 14.183l1.527-1.527c2.929-2.929 2.929-7.678 0-10.607z" fill="#4d5961" data-original="#4d5961" style=""/><path d="m456.584 150.505c-4.059 3.275-8.748 5.799-13.854 7.359l19.597 19.597c2.929 2.929 7.678 2.929 10.606 0 2.929-2.929 2.929-7.678 0-10.606z" fill="#4d5961" data-original="#4d5961" style=""/><path d="m504.5 95.817h-32.5v15h32.5c4.142 0 7.5-3.358 7.5-7.5s-3.358-7.5-7.5-7.5z" fill="#4d5961" data-original="#4d5961" style=""/><path d="m504.5 125.817h-33.18c-1.001 5.446-3.072 10.521-5.987 15h39.167c4.142 0 7.5-3.358 7.5-7.5s-3.358-7.5-7.5-7.5z" fill="#4d5961" data-original="#4d5961" style=""/><path d="m504.5 65.817h-32.5v15h32.5c4.142 0 7.5-3.358 7.5-7.5s-3.358-7.5-7.5-7.5z" fill="#4d5961" data-original="#4d5961" style=""/><path d="m243.163 177.461c2.929 2.929 7.678 2.929 10.606 0 2.929-2.929 2.929-7.678 0-10.606l-7.196-7.196h-21.213z" fill="#4d5961" data-original="#4d5961" style=""/><path d="m286.996 177.461c2.929 2.929 7.678 2.929 10.606 0 2.929-2.929 2.929-7.678 0-10.606l-7.196-7.196h-21.213z" fill="#4d5961" data-original="#4d5961" style=""/></g><path xmlns="http://www.w3.org/2000/svg" d="m504.5 263.5h-331.333c-4.142 0-7.5-3.358-7.5-7.5s3.358-7.5 7.5-7.5h331.333c4.142 0 7.5 3.358 7.5 7.5s-3.358 7.5-7.5 7.5z" fill="#000000" data-original="#000000" style=""/><path xmlns="http://www.w3.org/2000/svg" d="m504.5 293.5h-257.455c-4.142 0-7.5-3.358-7.5-7.5s3.358-7.5 7.5-7.5h257.455c4.142 0 7.5 3.358 7.5 7.5s-3.358 7.5-7.5 7.5z" fill="#000000" data-original="#000000" style=""/><path xmlns="http://www.w3.org/2000/svg" d="m504.5 233.5h-331.333c-4.142 0-7.5-3.358-7.5-7.5s3.358-7.5 7.5-7.5h331.333c4.142 0 7.5 3.358 7.5 7.5s-3.358 7.5-7.5 7.5z" fill="#000000" data-original="#000000" style=""/><path xmlns="http://www.w3.org/2000/svg" d="m165.667 220.986c0-22.788 18.539-41.328 41.327-41.328h263.679c22.788 0 41.327 18.54 41.327 41.328v70.027c0 22.788-18.539 41.328-41.327 41.328h-263.679c-22.788 0-41.327-18.54-41.327-41.328z" fill="#808b95" data-original="#808b95" style=""/><path xmlns="http://www.w3.org/2000/svg" d="m512 256c0 4.142-3.358 7.5-7.5 7.5h-331.333c-4.142 0-7.5-3.358-7.5-7.5s3.358-7.5 7.5-7.5h331.333c4.142 0 7.5 3.358 7.5 7.5zm-338.833-22.5h331.333c4.142 0 7.5-3.358 7.5-7.5s-3.358-7.5-7.5-7.5h-57.604l26.038-26.038c2.929-2.929 2.929-7.678 0-10.606-2.928-2.929-7.677-2.929-10.606 0l-36.645 36.644h-22.62l26.038-26.038c2.929-2.929 2.929-7.678 0-10.606-2.929-2.929-7.678-2.929-10.606 0l-36.644 36.644h-22.62l26.038-26.038c2.929-2.929 2.929-7.678 0-10.606-2.929-2.929-7.678-2.929-10.606 0l-36.645 36.644h-22.62l26.038-26.038c2.929-2.929 2.929-7.678 0-10.606-2.929-2.929-7.678-2.929-10.606 0l-36.645 36.644h-22.62l26.038-26.038c2.929-2.929 2.929-7.678 0-10.606-2.928-2.929-7.677-2.929-10.606 0l-36.645 36.644h-22.62l26.038-26.038c2.929-2.929 2.929-7.678 0-10.606-2.928-2.929-7.677-2.929-10.606 0l-36.645 36.644h-33.352c-4.142 0-7.5 3.358-7.5 7.5s3.357 7.5 7.5 7.5zm331.333 45h-331.333c-4.142 0-7.5 3.358-7.5 7.5s3.358 7.5 7.5 7.5h33.352l36.645 36.644c2.929 2.929 7.678 2.929 10.606 0 2.929-2.929 2.929-7.678 0-10.606l-26.038-26.038h22.62l36.645 36.644c2.929 2.929 7.678 2.929 10.606 0 2.929-2.929 2.929-7.678 0-10.606l-26.038-26.038h22.62l36.644 36.644c2.929 2.929 7.678 2.929 10.606 0 2.929-2.929 2.929-7.678 0-10.606l-26.038-26.038h22.62l36.644 36.644c2.929 2.929 7.678 2.929 10.606 0 2.929-2.929 2.929-7.678 0-10.606l-26.037-26.038h22.62l36.644 36.644c2.929 2.929 7.678 2.929 10.606 0 2.929-2.929 2.929-7.678 0-10.606l-26.037-26.038h22.62l36.645 36.644c2.929 2.929 7.678 2.929 10.606 0 2.929-2.929 2.929-7.678 0-10.606l-26.038-26.038h57.604c4.142 0 7.5-3.358 7.5-7.5s-3.358-7.5-7.5-7.5z" fill="#5e6b75" data-original="#5e6b75" style=""/><path xmlns="http://www.w3.org/2000/svg" d="m470.673 179.659h-4.613c3.769 6.23 5.94 13.53 5.94 21.328v70.027c0 22.788-18.539 41.328-41.327 41.328h-259.067c7.245 11.977 20.397 20 35.387 20h263.679c22.788 0 41.327-18.54 41.327-41.328v-70.027c.001-22.789-18.538-41.328-41.326-41.328z" fill="#5e6b75" data-original="#5e6b75" style=""/><path xmlns="http://www.w3.org/2000/svg" d="m330.829 330.144c2.929 2.929 7.678 2.929 10.606 0 2.929-2.929 2.929-7.678 0-10.606l-7.196-7.196h-21.213z" fill="#4d5961" data-original="#4d5961" style=""/><path xmlns="http://www.w3.org/2000/svg" d="m374.662 330.144c2.929 2.929 7.678 2.929 10.606 0 2.929-2.929 2.929-7.678 0-10.606l-7.196-7.196h-21.213z" fill="#4d5961" data-original="#4d5961" style=""/><path xmlns="http://www.w3.org/2000/svg" d="m418.495 330.144c2.929 2.929 7.678 2.929 10.606 0 2.929-2.929 2.929-7.678 0-10.606l-7.196-7.196h-21.213z" fill="#4d5961" data-original="#4d5961" style=""/><path xmlns="http://www.w3.org/2000/svg" d="m472.934 181.856c-1.843-1.844-4.407-2.526-6.785-2.049 2.569 4.288 4.384 9.077 5.258 14.183l1.527-1.527c2.929-2.929 2.929-7.678 0-10.607z" fill="#4d5961" data-original="#4d5961" style=""/><path xmlns="http://www.w3.org/2000/svg" d="m456.584 303.188c-4.059 3.275-8.748 5.799-13.854 7.359l19.597 19.597c2.929 2.929 7.678 2.929 10.606 0 2.929-2.929 2.929-7.678 0-10.606z" fill="#4d5961" data-original="#4d5961" style=""/><path xmlns="http://www.w3.org/2000/svg" d="m504.5 248.5h-32.5v15h32.5c4.142 0 7.5-3.358 7.5-7.5s-3.358-7.5-7.5-7.5z" fill="#4d5961" data-original="#4d5961" style=""/><path xmlns="http://www.w3.org/2000/svg" d="m504.5 278.5h-33.18c-1.001 5.446-3.072 10.521-5.987 15h39.167c4.142 0 7.5-3.358 7.5-7.5s-3.358-7.5-7.5-7.5z" fill="#4d5961" data-original="#4d5961" style=""/><path xmlns="http://www.w3.org/2000/svg" d="m504.5 218.5h-32.5v15h32.5c4.142 0 7.5-3.358 7.5-7.5s-3.358-7.5-7.5-7.5z" fill="#4d5961" data-original="#4d5961" style=""/><path xmlns="http://www.w3.org/2000/svg" d="m243.163 330.144c2.929 2.929 7.678 2.929 10.606 0 2.929-2.929 2.929-7.678 0-10.606l-7.196-7.196h-21.213z" fill="#4d5961" data-original="#4d5961" style=""/><path xmlns="http://www.w3.org/2000/svg" d="m286.996 330.144c2.929 2.929 7.678 2.929 10.606 0 2.929-2.929 2.929-7.678 0-10.606l-7.196-7.196h-21.213z" fill="#4d5961" data-original="#4d5961" style=""/><path xmlns="http://www.w3.org/2000/svg" d="m504.5 416.183h-331.333c-4.142 0-7.5-3.358-7.5-7.5s3.358-7.5 7.5-7.5h331.333c4.142 0 7.5 3.358 7.5 7.5s-3.358 7.5-7.5 7.5z" fill="#000000" data-original="#000000" style=""/><path xmlns="http://www.w3.org/2000/svg" d="m504.5 446.183h-257.455c-4.142 0-7.5-3.358-7.5-7.5s3.358-7.5 7.5-7.5h257.455c4.142 0 7.5 3.358 7.5 7.5s-3.358 7.5-7.5 7.5z" fill="#000000" data-original="#000000" style=""/><path xmlns="http://www.w3.org/2000/svg" d="m504.5 386.183h-331.333c-4.142 0-7.5-3.358-7.5-7.5s3.358-7.5 7.5-7.5h331.333c4.142 0 7.5 3.358 7.5 7.5s-3.358 7.5-7.5 7.5z" fill="#000000" data-original="#000000" style=""/><path xmlns="http://www.w3.org/2000/svg" d="m165.667 373.669c0-22.788 18.539-41.328 41.327-41.328h263.679c22.788 0 41.327 18.54 41.327 41.328v70.027c0 22.788-18.539 41.328-41.327 41.328h-263.679c-22.788 0-41.327-18.54-41.327-41.328z" fill="#808b95" data-original="#808b95" style=""/><path xmlns="http://www.w3.org/2000/svg" d="m512 408.683c0 4.142-3.358 7.5-7.5 7.5h-331.333c-4.142 0-7.5-3.358-7.5-7.5s3.358-7.5 7.5-7.5h331.333c4.142 0 7.5 3.358 7.5 7.5zm-338.833-22.5h331.333c4.142 0 7.5-3.358 7.5-7.5s-3.358-7.5-7.5-7.5h-57.604l26.038-26.038c2.929-2.929 2.929-7.678 0-10.606-2.928-2.929-7.677-2.929-10.606 0l-36.645 36.644h-22.62l26.038-26.038c2.929-2.929 2.929-7.678 0-10.606-2.929-2.929-7.678-2.929-10.606 0l-36.644 36.644h-22.62l26.038-26.038c2.929-2.929 2.929-7.678 0-10.606-2.929-2.929-7.678-2.929-10.606 0l-36.644 36.644h-22.62l26.038-26.038c2.929-2.929 2.929-7.678 0-10.606-2.929-2.929-7.678-2.929-10.606 0l-36.644 36.644h-22.62l26.038-26.038c2.929-2.929 2.929-7.678 0-10.606-2.928-2.929-7.677-2.929-10.606 0l-36.645 36.644h-22.62l26.038-26.038c2.929-2.929 2.929-7.678 0-10.606-2.928-2.929-7.677-2.929-10.606 0l-36.645 36.644h-33.352c-4.142 0-7.5 3.358-7.5 7.5s3.355 7.5 7.498 7.5zm331.333 45h-331.333c-4.142 0-7.5 3.358-7.5 7.5s3.358 7.5 7.5 7.5h33.352l36.645 36.644c2.929 2.929 7.678 2.929 10.606 0 2.929-2.929 2.929-7.678 0-10.606l-26.038-26.038h22.62l36.645 36.644c2.929 2.929 7.678 2.929 10.606 0 2.929-2.929 2.929-7.678 0-10.606l-26.038-26.038h22.62l36.644 36.644c2.929 2.929 7.678 2.929 10.606 0 2.929-2.929 2.929-7.678 0-10.606l-26.038-26.038h22.62l36.644 36.644c2.929 2.929 7.678 2.929 10.606 0 2.929-2.929 2.929-7.678 0-10.606l-26.038-26.038h22.62l36.644 36.644c2.929 2.929 7.678 2.929 10.606 0 2.929-2.929 2.929-7.678 0-10.606l-26.038-26.038h22.62l36.645 36.644c2.929 2.929 7.678 2.929 10.606 0 2.929-2.929 2.929-7.678 0-10.606l-26.038-26.038h57.606c4.142 0 7.5-3.358 7.5-7.5s-3.358-7.5-7.5-7.5z" fill="#5e6b75" data-original="#5e6b75" style=""/><path xmlns="http://www.w3.org/2000/svg" d="m470.673 332.341h-4.613c3.769 6.23 5.94 13.53 5.94 21.328v70.027c0 22.788-18.539 41.328-41.327 41.328h-259.067c7.245 11.977 20.397 20 35.387 20h263.679c22.788 0 41.327-18.54 41.327-41.328v-70.027c.001-22.788-18.538-41.328-41.326-41.328z" fill="#5e6b75" data-original="#5e6b75" style=""/><path xmlns="http://www.w3.org/2000/svg" d="m330.829 482.827c2.929 2.929 7.678 2.929 10.606 0 2.929-2.929 2.929-7.678 0-10.606l-7.196-7.196h-21.213z" fill="#4d5961" data-original="#4d5961" style=""/><path xmlns="http://www.w3.org/2000/svg" d="m374.662 482.827c2.929 2.929 7.678 2.929 10.606 0 2.929-2.929 2.929-7.678 0-10.606l-7.196-7.196h-21.213z" fill="#4d5961" data-original="#4d5961" style=""/><path xmlns="http://www.w3.org/2000/svg" d="m418.495 482.827c2.929 2.929 7.678 2.929 10.606 0 2.929-2.929 2.929-7.678 0-10.606l-7.196-7.196h-21.213z" fill="#4d5961" data-original="#4d5961" style=""/><path xmlns="http://www.w3.org/2000/svg" d="m472.934 334.539c-1.843-1.844-4.407-2.526-6.785-2.049 2.569 4.288 4.384 9.077 5.258 14.183l1.527-1.527c2.929-2.93 2.929-7.679 0-10.607z" fill="#4d5961" data-original="#4d5961" style=""/><path xmlns="http://www.w3.org/2000/svg" d="m456.584 455.87c-4.059 3.275-8.748 5.799-13.854 7.359l19.597 19.597c2.929 2.929 7.678 2.929 10.606 0 2.929-2.929 2.929-7.678 0-10.606z" fill="#4d5961" data-original="#4d5961" style=""/><path xmlns="http://www.w3.org/2000/svg" d="m504.5 401.183h-32.5v15h32.5c4.142 0 7.5-3.358 7.5-7.5s-3.358-7.5-7.5-7.5z" fill="#4d5961" data-original="#4d5961" style=""/><path xmlns="http://www.w3.org/2000/svg" d="m504.5 431.183h-33.18c-1.001 5.446-3.072 10.521-5.987 15h39.167c4.142 0 7.5-3.358 7.5-7.5s-3.358-7.5-7.5-7.5z" fill="#4d5961" data-original="#4d5961" style=""/><path xmlns="http://www.w3.org/2000/svg" d="m504.5 371.183h-32.5v15h32.5c4.142 0 7.5-3.358 7.5-7.5s-3.358-7.5-7.5-7.5z" fill="#4d5961" data-original="#4d5961" style=""/><path xmlns="http://www.w3.org/2000/svg" d="m243.163 482.827c2.929 2.929 7.678 2.929 10.606 0 2.929-2.929 2.929-7.678 0-10.606l-7.196-7.196h-21.213z" fill="#4d5961" data-original="#4d5961" style=""/><path xmlns="http://www.w3.org/2000/svg" d="m286.996 482.827c2.929 2.929 7.678 2.929 10.606 0 2.929-2.929 2.929-7.678 0-10.606l-7.196-7.196h-21.213z" fill="#4d5961" data-original="#4d5961" style=""/><path xmlns="http://www.w3.org/2000/svg" d="m173.167 427.375c-63.697 0-115.518-51.821-115.518-115.518s51.821-115.518 115.518-115.518 115.518 51.821 115.518 115.518-51.822 115.518-115.518 115.518zm0-216.036c-55.426 0-100.518 45.092-100.518 100.518s45.092 100.518 100.518 100.518 100.518-45.092 100.518-100.518-45.093-100.518-100.518-100.518z" fill="#000000" data-original="#000000" style=""/><path xmlns="http://www.w3.org/2000/svg" d="m173.167 332.772c-11.532 0-20.915-9.382-20.915-20.915 0-11.532 9.382-20.915 20.915-20.915s20.915 9.382 20.915 20.915-9.383 20.915-20.915 20.915zm0-26.83c-3.261 0-5.915 2.653-5.915 5.915s2.653 5.915 5.915 5.915 5.915-2.653 5.915-5.915c0-3.261-2.654-5.915-5.915-5.915z" fill="#000000" data-original="#000000" style=""/><path xmlns="http://www.w3.org/2000/svg" d="m147.776 287.836c-3.351 0-6.707-.866-9.71-2.601l-33.112-19.117c-1.901-1.098-3.227-2.974-3.625-5.133s.169-4.385 1.553-6.089c14.157-17.438 34.084-28.958 56.111-32.439 2.169-.341 4.375.281 6.042 1.706s2.628 3.509 2.628 5.702v38.281c0 6.958-3.727 13.399-9.725 16.808l-.408.236c-2.998 1.763-6.373 2.646-9.754 2.646zm-27.257-30.051 25.047 14.46c1.365.788 3.037.792 4.363.013l.597-.345c1.319-.75 2.137-2.192 2.137-3.767v-28.971c-12.072 3.408-23.109 9.797-32.144 18.61z" fill="#000000" data-original="#000000" style=""/><path xmlns="http://www.w3.org/2000/svg" d="m198.56 287.836c-3.383 0-6.76-.884-9.762-2.65l-.402-.232c-5.998-3.408-9.725-9.849-9.725-16.807v-38.281c0-2.193.96-4.277 2.628-5.702s3.874-2.049 6.042-1.706c22.028 3.481 41.956 15.001 56.112 32.439 1.384 1.705 1.951 3.93 1.553 6.089-.399 2.159-1.724 4.035-3.625 5.133l-33.112 19.117c-3.004 1.733-6.36 2.6-9.709 2.6zm-4.889-48.661v28.971c0 1.574.819 3.018 2.137 3.767l.591.341c1.332.783 3.004.78 4.37-.009l25.046-14.46c-9.036-8.812-20.072-15.202-32.144-18.61z" fill="#000000" data-original="#000000" style=""/><path xmlns="http://www.w3.org/2000/svg" d="m95.672 349.082c-.842 0-1.688-.142-2.5-.429-2.067-.731-3.711-2.33-4.499-4.377-3.997-10.385-6.024-21.292-6.024-32.419 0-11.126 2.027-22.034 6.024-32.419.788-2.047 2.432-3.646 4.499-4.377 2.068-.731 4.352-.521 6.25.576l33.134 19.13c5.994 3.46 9.709 9.988 9.696 17.035l-7.5.055h7.5v.07c.014 7.033-3.702 13.561-9.696 17.021l-33.134 19.129c-1.153.666-2.448 1.005-3.75 1.005zm4.304-55.806c-1.546 6.057-2.327 12.276-2.327 18.581s.78 12.524 2.327 18.581l25.081-14.48c1.378-.796 2.199-2.297 2.196-4.017 0-.004 0-.079 0-.084v-.069c.003-1.733-.817-3.235-2.196-4.031z" fill="#000000" data-original="#000000" style=""/><path xmlns="http://www.w3.org/2000/svg" d="m250.661 349.082c-1.303 0-2.597-.339-3.75-1.005l-33.133-19.129c-5.994-3.46-9.709-9.988-9.696-17.035 0-.02 0-.083 0-.104-.013-7.055 3.702-13.583 9.696-17.043l33.134-19.13c1.899-1.097 4.183-1.307 6.25-.576s3.711 2.33 4.499 4.377c3.997 10.385 6.024 21.293 6.024 32.419 0 11.127-2.027 22.035-6.024 32.419-.788 2.046-2.432 3.646-4.5 4.376-.812.289-1.658.431-2.5.431zm-4.303-55.806-25.081 14.48c-1.378.796-2.199 2.297-2.196 4.017v.197c-.003 1.689.818 3.191 2.196 3.987l25.081 14.48c1.546-6.056 2.327-12.276 2.327-18.581 0-6.303-.781-12.523-2.327-18.58z" fill="#000000" data-original="#000000" style=""/><path xmlns="http://www.w3.org/2000/svg" d="m160.162 401.349c-.389 0-.78-.03-1.17-.092-22.027-3.48-41.955-15-56.111-32.438-1.384-1.705-1.951-3.93-1.553-6.089.399-2.159 1.724-4.035 3.625-5.133l33.112-19.117c6.035-3.484 13.496-3.465 19.469.049l.397.229c6.004 3.412 9.73 9.853 9.73 16.811v38.281c0 2.193-.96 4.277-2.628 5.702-1.366 1.167-3.097 1.797-4.871 1.797zm-39.643-35.419c9.036 8.812 20.072 15.201 32.143 18.609v-28.971c0-1.574-.819-3.018-2.137-3.767-.199-.113-.402-.23-.604-.35-1.318-.775-2.99-.771-4.355.018zm21.296-20.956h.01z" fill="#000000" data-original="#000000" style=""/><path xmlns="http://www.w3.org/2000/svg" d="m186.171 401.349c-1.773 0-3.504-.629-4.872-1.798-1.667-1.425-2.628-3.509-2.628-5.702v-38.281c0-6.958 3.727-13.398 9.726-16.808l.394-.228c5.983-3.52 13.443-3.538 19.478-.054l33.112 19.117c1.901 1.098 3.227 2.974 3.625 5.133s-.169 4.385-1.553 6.089c-14.156 17.438-34.083 28.958-56.111 32.438-.39.063-.782.094-1.171.094zm12.388-50.474c-.75 0-1.495.194-2.155.582-.194.115-.397.232-.601.348-1.313.747-2.132 2.189-2.132 3.764v28.971c12.072-3.408 23.108-9.797 32.143-18.609l-25.046-14.46c-.686-.398-1.451-.596-2.209-.596z" fill="#000000" data-original="#000000" style=""/><ellipse xmlns="http://www.w3.org/2000/svg" cx="173.167" cy="311.857" fill="#808b95" rx="173.167" ry="173.167" transform="matrix(.707 -.707 .707 .707 -169.797 213.788)" data-original="#808b95" style=""/><path xmlns="http://www.w3.org/2000/svg" d="m229.722 148.173c46.18 31.134 76.612 83.922 76.612 143.684 0 95.484-77.683 173.167-173.167 173.167-19.795 0-38.824-3.339-56.555-9.482 27.603 18.609 60.833 29.482 96.555 29.482 95.484 0 173.167-77.683 173.167-173.167-.001-75.69-48.813-140.193-116.612-163.684z" fill="#5e6b75" data-original="#5e6b75" style=""/><circle xmlns="http://www.w3.org/2000/svg" cx="173.167" cy="311.857" fill="#f6f9f9" r="108.018" data-original="#f6f9f9" style=""/><path xmlns="http://www.w3.org/2000/svg" d="m200.289 207.289c24.901 19.805 40.896 50.353 40.896 84.569 0 59.562-48.457 108.018-108.018 108.018-9.364 0-18.452-1.199-27.122-3.45 18.446 14.671 41.777 23.45 67.122 23.45 59.562 0 108.018-48.457 108.018-108.018 0-50.199-34.419-92.507-80.896-104.569z" fill="#e7ecf1" data-original="#e7ecf1" style=""/><circle xmlns="http://www.w3.org/2000/svg" cx="173.167" cy="311.857" fill="#707dd3" r="13.415" data-original="#707dd3" style=""/><path xmlns="http://www.w3.org/2000/svg" d="m160.162 268.146v-38.281c-20.669 3.266-38.818 14.187-51.459 29.758l33.112 19.117c3.689 2.13 8.245 2.142 11.917-.018.166-.097.332-.194.499-.289 3.688-2.096 5.931-6.045 5.931-10.287z" fill="#5e6b75" data-original="#5e6b75" style=""/><path xmlns="http://www.w3.org/2000/svg" d="m204.518 278.74 33.112-19.117c-12.641-15.571-30.79-26.492-51.459-29.758v38.281c0 4.242 2.243 8.191 5.931 10.287.167.095.334.191.499.289 3.672 2.16 8.228 2.148 11.917.018z" fill="#5e6b75" data-original="#5e6b75" style=""/><path xmlns="http://www.w3.org/2000/svg" d="m134.752 311.857c0-.023 0-.046 0-.07.008-4.33-2.196-8.361-5.946-10.526l-33.134-19.13c-3.555 9.236-5.524 19.252-5.524 29.725s1.969 20.489 5.524 29.725l33.133-19.13c3.75-2.165 5.954-6.196 5.946-10.526.001-.021.001-.045.001-.068z" fill="#5e6b75" data-original="#5e6b75" style=""/><path xmlns="http://www.w3.org/2000/svg" d="m250.661 282.132-33.134 19.13c-3.75 2.165-5.954 6.196-5.946 10.526v.07.07c-.008 4.33 2.196 8.361 5.946 10.526l33.133 19.13c3.555-9.236 5.524-19.252 5.524-29.725s-1.968-20.491-5.523-29.727z" fill="#5e6b75" data-original="#5e6b75" style=""/><path xmlns="http://www.w3.org/2000/svg" d="m141.815 344.974-33.112 19.117c12.641 15.571 30.791 26.492 51.459 29.758v-38.281c0-4.242-2.243-8.191-5.931-10.287-.167-.095-.334-.191-.499-.289-3.672-2.16-8.228-2.148-11.917-.018z" fill="#5e6b75" data-original="#5e6b75" style=""/><path xmlns="http://www.w3.org/2000/svg" d="m186.171 355.568v38.281c20.669-3.266 38.818-14.187 51.459-29.757l-33.112-19.117c-3.689-2.13-8.245-2.142-11.916.018-.166.097-.332.194-.499.289-3.689 2.095-5.932 6.044-5.932 10.286z" fill="#5e6b75" data-original="#5e6b75" style=""/><path xmlns="http://www.w3.org/2000/svg" d="m173.167 453.844c-4.142 0-7.5-3.358-7.5-7.5s3.358-7.5 7.5-7.5c33.919 0 65.809-13.209 89.793-37.193 23.985-23.985 37.193-55.874 37.193-89.793s-13.208-65.809-37.193-89.793c-2.929-2.929-2.929-7.678 0-10.606 2.929-2.929 7.678-2.929 10.606 0 26.818 26.817 41.587 62.474 41.587 100.399 0 37.926-14.769 73.582-41.587 100.4-26.817 26.817-62.473 41.586-100.399 41.586z" fill="#5e6b75" data-original="#5e6b75" style=""/><path xmlns="http://www.w3.org/2000/svg" d="m273.566 412.257c26.818-26.818 41.587-62.474 41.587-100.4 0-21.512-4.752-42.293-13.759-61.145 3.227 13.192 4.939 26.973 4.939 41.145 0 71.339-43.363 132.741-105.115 159.233 27.234-5.428 52.269-18.753 72.348-38.833z" fill="#4d5961" data-original="#4d5961" style=""/><path xmlns="http://www.w3.org/2000/svg" d="m78.07 414.454c-1.919 0-3.839-.732-5.303-2.197-26.818-26.818-41.587-62.474-41.587-100.4s14.769-73.582 41.587-100.399c26.817-26.818 62.473-41.587 100.399-41.587 4.142 0 7.5 3.358 7.5 7.5s-3.358 7.5-7.5 7.5c-33.919 0-65.809 13.209-89.793 37.194-23.985 23.984-37.193 55.874-37.193 89.793s13.208 65.809 37.193 89.793c2.929 2.929 2.929 7.678 0 10.606-1.464 1.464-3.383 2.197-5.303 2.197z" fill="#5e6b75" data-original="#5e6b75" style=""/></g></svg>
